# xmcd
#
# Track frame offsets: 
#        150
#        41808
#        91239
#        126907
#        154837
#        179902
#        204183
#        255107
#        299835
#
# Disc length: 4542 seconds
#
# Revision: 1
# Processed by: cddbd v1.5.2PL0 Copyright (c) Steve Scherf et al.
# Submitted via: ExactAudioCopyFreeDBPlugin 1.0
#
DISCID=8211bc09
DTITLE=Dizzy Gillespie and Roy Eldridge - Roy and Diz Vol. 1&2
DYEAR=1954
DGENRE=Jazz
TTITLE0=I Found A New Baby
TTITLE1=I Can't Get Started
TTITLE2=Trumpet Blues
TTITLE3=Algo Bueno
TTITLE4=Pretty Eyed Baby
TTITLE5=Sometimes I'M Happy
TTITLE6=Ballad Medley
TTITLE7=Limehouse Blues
TTITLE8=Blue Moon
EXTD=YEAR: 1954
EXTT0=
EXTT1=
EXTT2=
EXTT3=
EXTT4=
EXTT5=
EXTT6=
EXTT7=
EXTT8=
PLAYORDER=
